PathFileType	4	(X/Y/Z)	8_1_rein_19_p0_0-253_filt_butterworth.trc
DataRate	CameraRate	NumFrames	NumMarkers	Units	OrigDataRate	OrigDataStartFrame	OrigNumFrames
60.0	60.0	7	27	m	60.0	94	253
Frame#	Time	RHip			RKnee			RAnkle			RBigToe			RSmallToe			RHeel			LHip			LKnee			LAnkle			LBigToe			LSmallToe			LHeel			Neck			Head			Nose			RShoulder			RElbow			RWrist			RThumb			RIndex			RPinky			LShoulder			LElbow			LWrist			LThumb			LIndex			LPinky			
		X1	Y1	Z1	X2	Y2	Z2	X3	Y3	Z3	X4	Y4	Z4	X5	Y5	Z5	X6	Y6	Z6	X7	Y7	Z7	X8	Y8	Z8	X9	Y9	Z9	X10	Y10	Z10	X11	Y11	Z11	X12	Y12	Z12	X13	Y13	Z13	X14	Y14	Z14	X15	Y15	Z15	X16	Y16	Z16	X17	Y17	Z17	X18	Y18	Z18	X19	Y19	Z19	X20	Y20	Z20	X21	Y21	Z21	X22	Y22	Z22	X23	Y23	Z23	X24	Y24	Z24	X25	Y25	Z25	X26	Y26	Z26	X27	Y27	Z27	
94	1.5666666666666669	0.2920354903414175	0.5495307932023298	0.8932567756445073	0.24774856835322887	0.677262667639772	1.3080901727187852	0.21531050704212862	0.9272580593634019	1.7111023036388238	0.21273876505438827	0.7003870023471811	1.7737935850888218	0.27274738269057935	0.7841498214293832	1.786929900828466	0.2104135364652703	0.9495029330697755	1.7452456069736382	0.06959417799090842	0.5466872244916188	0.8600532059080636	0.039167120662235266	0.6635890556817098	1.2828703240514523	0.04264715320120679	0.8572941168993556	1.6862774119751855	0.05466760237451888	0.7282219611525882	1.7852869974991388	-2.366813979020929e-05	0.7500817932284514	1.7607415944074272	0.06145976735551686	0.9983347947262108	1.7599613893764945	0.3130188295353679	0.5475591418902588	0.24185997651146632	0.4134286096854626	0.5466927227832924	0.014188035739038485	0.3565246331916392	0.46099455239936105	0.11480729736093712	0.4500099562767262	0.5460590187213716	0.388324214997855	0.46138156997069446	0.5771029223418562	0.668070105065348	0.4138369088238758	0.5265173220576935	0.9230756341170683	0.34737423454319605	0.5012546149218892	1.0223369077398494	0.3642824140819548	0.5040326091561974	1.058711918787345	0.3750521151400392	0.5714531456268592	1.0618108142346179	0.1124229580386251	0.5644959994906332	0.2941127233729857	-0.0009264745901881933	0.5879545172215948	0.5552098900275807	-0.06385040317122742	0.548625741351469	0.8200606637653949	-0.03623811965375696	0.5238117855421539	0.9208884742285726	-0.06874581372852683	0.5331791897230989	0.9290134982833804	-0.09077883044268026	0.5176064231867229	0.9205873430272649
95	1.5833333333333333	0.2919975728080786	0.549630288796596	0.8933646961629425	0.24779512522986288	0.6770390841731071	1.308066517530917	0.21530430911304188	0.927261694674709	1.711072272166827	0.21171536726224469	0.7001910781719566	1.773730255182877	0.27315179223429015	0.7855758418747513	1.78741999363297	0.2103902126658366	0.9494540422938773	1.7452478861360714	0.07121157244404522	0.5418060686060353	0.8592522125244054	0.040640669399949224	0.6604597168949481	1.282988557428709	0.04261660622353094	0.8572646129734822	1.6877447151928917	0.056108191728975534	0.7237190237220423	1.7846766230304922	5.269474278510757e-05	0.7500060720925306	1.7606643092439005	0.0614528454738727	0.998689665113039	1.7601847452114052	0.3151224433026021	0.5475160791763393	0.24354834175588053	0.41637826726555827	0.5470989749189104	0.014081940697819616	0.3579776608419971	0.4611983075074283	0.11477686314018284	0.45030629700251157	0.5461233702971354	0.3883591839433456	0.46296666124229535	0.5778138620575535	0.6713221883304797	0.41529834340667504	0.5266842403497936	0.9238588645592827	0.34749214599660255	0.5005793871969056	1.0242797782200153	0.3640540154656957	0.5045706562282872	1.0597321195029357	0.37507357900292626	0.5722740444347021	1.0643964408674456	0.1132953276484274	0.5632071909226603	0.29423531724128393	-0.0002091317459482528	0.5904437258455292	0.5551564380420098	-0.06373819321735355	0.5485006672239722	0.8200265972615173	-0.034690207141054905	0.52040822388022	0.9196801329735816	-0.06723785816291201	0.5333595836242245	0.9276216909661223	-0.09042918479898886	0.5178056782857574	0.9205088755220368
96	1.6	0.29192113754926297	0.5498437091988188	0.893472606551726	0.24823163905682252	0.6767077362665777	1.3080175481322487	0.21530861981819305	0.9272654828379359	1.711050899959781	0.21035812130511428	0.6999590507065138	1.7736917955907132	0.2742091678721952	0.7892712730745995	1.7887240642006863	0.21036451599342768	0.9493800783802464	1.7452772120398188	0.0724136464204927	0.5382531814257712	0.8580143961312446	0.04123289685710005	0.659111251144213	1.2831703493322355	0.042610564958948785	0.8571552556655585	1.688346804348213	0.05808052278908656	0.7176779682401496	1.7838628349150651	0.00011233675343131513	0.749972897983389	1.7606617905623292	0.06149293306752399	0.9991122522713533	1.7603918671403191	0.3172817842166132	0.5479846135542095	0.24513676401085321	0.4195143884762026	0.5476080570187539	0.01408025773645559	0.36076253329910046	0.4614772162916716	0.1147499603420064	0.45165794227965783	0.546197943776738	0.3883426470386954	0.4637616472491452	0.5789243423785027	0.6749714108976996	0.416253904755448	0.5269001180836188	0.9250025876138657	0.3472573279655476	0.5011082254806609	1.026517841721431	0.36398711294302905	0.5047405255247828	1.0611179001427267	0.37503128790931356	0.5729398731109979	1.0681808632096472	0.11450715414780488	0.5635989070354236	0.29420901326412874	0.0017675218113594835	0.5926978601799039	0.5552243265002367	-0.06365365409354352	0.548424590579047	0.8200037224016978	-0.03373161469816675	0.5189651718762636	0.918457377766438	-0.06622488438029425	0.5347497947770262	0.92705926107564	-0.09006435912702335	0.5178412801730615	0.9200505834772684
97	1.6166666666666667	0.29192692236728546	0.5497346420532411	0.8935016321610662	0.24931373789749145	0.6768804569125892	1.30806759437377	0.21531693172106606	0.9272755049235131	1.711049654794843	0.20927373207581806	0.6998009165974101	1.7736841744401093	0.27561398810661836	0.7941783928392783	1.7904641284005343	0.21034806180456567	0.94931148947093	1.7453258893304278	0.0730708262456497	0.5370673226198078	0.8569317891285223	0.04118689191807546	0.6587552476048215	1.2827728513920604	0.04261073070647092	0.8572183383844373	1.6884551835505324	0.05964808867388627	0.7129112879868794	1.7832027821210368	0.00012973674993944413	0.7499741191306666	1.7607275787150534	0.061475817357514166	0.9990279093580732	1.7603708196613355	0.31916166927173234	0.5488124297744986	0.2468204989718088	0.42321509859338813	0.5488840673766552	0.014337092626697887	0.36423058487061666	0.46196551989894896	0.11482214610616379	0.45389549224862175	0.5458170746074271	0.38839333086892724	0.46395033839785027	0.5796404477798753	0.6774474209001181	0.41619752860203096	0.5272221468952903	0.9267446119759397	0.34699210839241573	0.5017827336237309	1.028384558746526	0.3641785001163148	0.5034490896818277	1.0620496410106646	0.37497479710102677	0.573457224259588	1.072158611961747	0.11635696622905617	0.564459892399242	0.29424039803950686	0.005037452909164376	0.5926437087183803	0.5553315151320242	-0.06361519412384406	0.5484551186891177	0.8200520842410904	-0.033317431170459516	0.5190171770707436	0.9176463707909451	-0.06532455451802091	0.53849285584312	0.9272944581228403	-0.08981141415937129	0.5178837955529442	0.9190466726148137
98	1.6333333333333333	0.29229743265226854	0.548224848547481	0.893342720453101	0.2507580568580685	0.6786494791045595	1.308445836367183	0.21532352125082474	0.9272987701995947	1.7110408615528296	0.20876414665042178	0.69977038722173	1.7737026457992189	0.2766996693941694	0.7980072939474265	1.7918096585395744	0.21034399878664553	0.9492728211034154	1.7453525458443822	0.07372924582820707	0.5374948761101295	0.8562310998303252	0.04089150764417496	0.6583331995197748	1.2815094035777446	0.04261807159164957	0.8572831537457444	1.6883871388535652	0.06021486054567807	0.7112128877820924	1.7830333166297105	0.00010392584310553403	0.750002488908964	1.760829016207815	0.06112919082773354	0.9972496715933564	1.7597625696960058	0.32039470020805527	0.5498932579532795	0.24863464673615537	0.426824870614941	0.5511941084512483	0.015035403330733704	0.36707169104496373	0.46235958722956594	0.11524708804549029	0.4560060655548571	0.5452659460079212	0.3886798986671262	0.46390152377493765	0.5798854785048185	0.6783110801096464	0.41519055572262104	0.5274677444985438	0.92866488067813	0.34684139422685	0.5022202226304764	1.0295329279317447	0.3642974960343246	0.4999819454233033	1.0623429154264197	0.37487315091060736	0.5736427473455293	1.0752214824935398	0.11851136685147955	0.5647702183659283	0.29457075274446526	0.008629969808695868	0.5902786890150545	0.5555007384798767	-0.06361133502062159	0.5485835856758657	0.82017764647985	-0.03320274974396942	0.519587683001546	0.9173615405098737	-0.06427794476970139	0.5446655148469993	0.9280417667853897	-0.08972563421891111	0.5181203391225406	0.9177810841292995
99	1.65	0.29323763554928894	0.5445236396669352	0.8929610096817533	0.2518888712116514	0.6826791161688645	1.3092947617996118	0.21532856795678876	0.9273261236311824	1.7109785915095848	0.20874835188620194	0.699818074586576	1.7737277442104407	0.27716632349676373	0.7997526691318425	1.7923613241850884	0.21034624685169198	0.949253350555824	1.745314099836492	0.07482741932170392	0.5383277462465597	0.8556862661471895	0.040590706552199735	0.6575967388343134	1.279804478403286	0.04264627587910046	0.8568262091847496	1.6880194565545903	0.059690493846291784	0.7128476080270982	1.78366383438303	5.678060892381458e-05	0.7500587702119692	1.7609087822014187	0.06023617222951823	0.9928865574695999	1.7583166389680274	0.321132122596028	0.5517734633864145	0.2503527074200822	0.42925160299243825	0.5536767895908109	0.01621041330272189	0.36829689075930927	0.4619671766084595	0.1162262271803928	0.4571742420507199	0.5450572591722394	0.3893199819628954	0.4638534803184561	0.5798823910454431	0.6781959766419833	0.41375428462842634	0.5276404927626118	0.930157111274846	0.34683706927314945	0.5026071809111945	1.030608825253514	0.3636315861764523	0.4954784169431383	1.062556415946217	0.37478079648639706	0.5734986362308088	1.076938185631791	0.12042601766210093	0.5636870009141016	0.29535079637552464	0.011118117042648947	0.587746017249274	0.5557382552324649	-0.06360460118684486	0.5486829965819355	0.8201425553793192	-0.03315792131606827	0.5199401013712468	0.9173708220127664	-0.06310848440936927	0.5518970839958459	0.928920710426461	-0.08974564284657441	0.5185326782498383	0.9168228335967734
100	1.6666666666666667	0.2944739976861752	0.5396905569804251	0.8925101385136223	0.2523645539354034	0.6877502521396398	1.3103608900193002	0.2153361500831893	0.9273303731331495	1.7108678296555289	0.20923553126981959	0.6998809543629312	1.773725252249188	0.2772181943365154	0.8001243556735312	1.7923658398130278	0.2103509191790061	0.9492337562011398	1.7452171642233725	0.0761475934013336	0.5385251993573462	0.8552398932591359	0.04040800712995976	0.656926928260226	1.278500410726615	0.042701088639507535	0.8554307231780703	1.6870456983251048	0.058199790705577945	0.7174052747456516	1.7852523895806256	1.4858927030969769e-05	0.750181616193887	1.7609357661028135	0.05903568317853953	0.9871158753797185	1.7564335678223668	0.3220582046375253	0.5552240002156047	0.2515343076580053	0.4308494647563426	0.5560214225478317	0.01755410190221876	0.36820154575538966	0.4607921288401156	0.11749599039090543	0.4575600239604448	0.5450684557615441	0.3903733654436643	0.4639050538009017	0.5798122932264133	0.6778344726078271	0.4126095841604562	0.5280667810114763	0.9315710605524836	0.34694518034569544	0.5032442186052387	1.0328639847617485	0.362099235658353	0.4921927969292924	1.0630833680520133	0.3747491492233349	0.5732806624887344	1.0776959605683925	0.12186794409652464	0.5607915374957423	0.2964897884133729	0.012050553235243181	0.5865193632859915	0.5558198543212889	-0.06354500243566961	0.5484962403624718	0.8193791742796265	-0.03309312424106085	0.5198890088686559	0.9174414575906367	-0.06211874248171831	0.5582437379046363	0.929623009757828	-0.08978161107830344	0.5189013203671651	0.9164182014289104
